# xmcd
#
# Track frame offsets: 
#        150
#        33214
#        70067
#        90644
#        126511
#        158937
#
# Disc length: 2477 seconds
#
# Revision: 3
# Processed by: cddbd v1.5.2PL0 Copyright (c) Steve Scherf et al.
# Submitted via: ExactAudioCopy v1.0b3
#
DISCID=4909ab06
DTITLE=Conni - Conni backt Pizza and lernt Rad fahren
DYEAR=2004
DGENRE=Hörspiel
TTITLE0=Kartoffelbrei und Spinat!
TTITLE1=Der Pizzateig
TTITLE2=Die Pizza ist fertig!
TTITLE3=Aller Anfang ist schwer!
TTITLE4=Das neue Fahrad
TTITLE5=06 Eine kleine Schadenfreude
EXTD=YEAR: 2004
EXTT0=
EXTT1=
EXTT2=
EXTT3=
EXTT4=
EXTT5=
PLAYORDER=
